# xmcd
#
# Track frame offsets:
#	150
#	25271
#	37201
#	50872
#	60767
#	74802
#	97928
#	112506
#	125432
#	168636
#	178155
#	190818
#	208672
#	222516
#	240504
#	255995
#	270473
#	284923
#
# Disc length: 4046
#
# Revision: 4
# Processed by: cddbd v1.5.1PL0 Copyright (c) Steve Scherf et al.
# Submitted via: CDex 1.51
# Normalized: r3:DSETVAR1
#
DISCID=120fcc12
DTITLE=Various Artist - Best of British Blues, Vol. 1
DYEAR=2001
DGENRE=Blues
TTITLE0=Yardbirds - Smokestack Lightning (w Eric Clapton)
TTITLE1=All-Stars - Steelin' (w Jeff Beck)
TTITLE2=Savoy Brown Blues Band - I Tried
TTITLE3=Eric Clapton - I'm Your Witch Doctor (w John Mayall and the Bluesbreakers)
TTITLE4=T.S. McPhee - Ain't Gonna Cry No More
TTITLE5=Animals - Boom Boom
TTITLE6=Brian Auger Trinity - I See a Man Downstairs
TTITLE7=Rod Stewart - Bright Lights, Big City (w Long John Baldry)
TTITLE8=Van Morrison - T.B. Sheets
TTITLE9=All-Stars - LA Breakdown (w Jimmy Page)
TTITLE10=Eric Clapton - Freight Loader (w Jimmy Page)
TTITLE11=Eric Clapton - Telephone Blues (w John Mayall's Bluesbreakers)
TTITLE12=Jeremy Spencer - Look Down at My Women
TTITLE13=Savoy Brown Blues Band - True Story
TTITLE14=Yardbirds - Train Kept A-Rollin' (w Jeff Beck)
TTITLE15=Rod Stewart - So Much to Say
TTITLE16=Eric Clapton - Draggin' My Tail (w Jimmy Page)
TTITLE17=Animals - Night Time is the Right Time (w Sonny Boy Williamson)
EXTD=YEAR: 2001
EXTT0=
EXTT1=
EXTT2=
EXTT3=
EXTT4=
EXTT5=
EXTT6=
EXTT7=
EXTT8=
EXTT9=
EXTT10=
EXTT11=
EXTT12=
EXTT13=
EXTT14=
EXTT15=
EXTT16=
EXTT17=
PLAYORDER=
